<svg xmlns="http://www.w3.org/2000/svg" version="1.1" xmlns:xlink="http://www.w3.org/1999/xlink" xmlns:svgjs="http://svgjs.dev/svgjs" width="1500" height="594" viewBox="0 0 1500 594"><g transform="matrix(1,0,0,1,-0.9090909090909918,0.10458870471865112)"><svg viewBox="0 0 396 157" data-background-color="#ffffff" preserveAspectRatio="xMidYMid meet" height="594" width="1500" xmlns="http://www.w3.org/2000/svg" xmlns:xlink="http://www.w3.org/1999/xlink"><g id="tight-bounds" transform="matrix(1,0,0,1,0.2400000000000091,-0.027643815893654278)"><svg viewBox="0 0 395.52 157.0552876317873" height="157.0552876317873" width="395.52"><g><svg viewBox="0 0 395.52 157.0552876317873" height="157.0552876317873" width="395.52"><g transform="matrix(1,0,0,1,0,96.10119605128509)"><svg viewBox="0 0 395.52 60.954091580502215" height="60.954091580502215" width="395.52"><g id="textblocktransform"><svg viewBox="0 0 395.52 60.954091580502215" height="60.954091580502215" width="395.52" id="textblock"><g><svg viewBox="0 0 395.52 60.954091580502215" height="60.954091580502215" width="395.52"><g transform="matrix(1,0,0,1,0,0)"><svg width="395.52" viewBox="0.25 -37.55 304.63 46.949999999999996" height="60.954091580502215" data-palette-color="#233565"><path d="M33.95 0L27.15 0Q26.45-2.05 25.7-4.05 24.95-6.05 24.25-8.15L24.25-8.15 9.65-8.15Q8.95-6.05 8.22-4.03 7.5-2 6.8 0L6.8 0 0.25 0Q2.2-5.55 3.95-10.25 5.7-14.95 7.38-19.15 9.05-23.35 10.7-27.15 12.35-30.95 14.1-34.65L14.1-34.65 20.05-34.65Q21.8-30.95 23.45-27.15 25.1-23.35 26.78-19.15 28.45-14.95 30.23-10.25 32-5.55 33.95 0L33.95 0ZM16.95-27.95L16.95-27.95Q15.8-25.3 14.33-21.5 12.85-17.7 11.25-13.25L11.25-13.25 22.65-13.25Q21.05-17.7 19.55-21.55 18.05-25.4 16.95-27.95ZM59.7-20.8L59.7-34.65 66-34.65 66 0 59.7 0 59.7-15.35 44.65-15.35 44.65 0 38.35 0 38.35-34.65 44.65-34.65 44.65-20.8 59.7-20.8ZM104.1 0L97.3 0Q96.6-2.05 95.85-4.05 95.1-6.05 94.4-8.15L94.4-8.15 79.8-8.15Q79.1-6.05 78.37-4.03 77.65-2 76.95 0L76.95 0 70.4 0Q72.35-5.55 74.1-10.25 75.85-14.95 77.52-19.15 79.2-23.35 80.85-27.15 82.5-30.95 84.25-34.65L84.25-34.65 90.2-34.65Q91.95-30.95 93.6-27.15 95.25-23.35 96.92-19.15 98.6-14.95 100.37-10.25 102.15-5.55 104.1 0L104.1 0ZM87.1-27.95L87.1-27.95Q85.95-25.3 84.47-21.5 83-17.7 81.4-13.25L81.4-13.25 92.8-13.25Q91.2-17.7 89.7-21.55 88.2-25.4 87.1-27.95ZM118.04-35L118.04-35Q125.54-35 129.52-32.25 133.49-29.5 133.49-23.85L133.49-23.85Q133.49-16.8 126.54-14.3L126.54-14.3Q127.49-13.15 128.69-11.5 129.89-9.85 131.14-7.93 132.39-6 133.54-3.98 134.69-1.95 135.59 0L135.59 0 128.54 0Q127.59-1.8 126.49-3.63 125.39-5.45 124.27-7.18 123.14-8.9 122.04-10.43 120.94-11.95 119.99-13.15L119.99-13.15Q119.29-13.1 118.79-13.1 118.29-13.1 117.84-13.1L117.84-13.1 114.79-13.1 114.79 0 108.49 0 108.49-34.15Q110.79-34.65 113.39-34.83 115.99-35 118.04-35ZM118.49-29.55L118.49-29.55Q116.49-29.55 114.79-29.4L114.79-29.4 114.79-18.2 117.54-18.2Q119.84-18.2 121.59-18.45 123.34-18.7 124.52-19.35 125.69-20 126.29-21.1 126.89-22.2 126.89-23.9L126.89-23.9Q126.89-25.5 126.29-26.6 125.69-27.7 124.57-28.35 123.44-29 121.89-29.28 120.34-29.55 118.49-29.55ZM175.59 0L152.14 0 152.14-34.65 174.39-34.65 174.39-29.3 158.44-29.3 158.44-20.75 172.64-20.75 172.64-15.5 158.44-15.5 158.44-5.35 175.59-5.35 175.59 0ZM181.14 0L181.14-25.3Q182.89-25.8 185.69-26.25 188.49-26.7 191.89-26.7L191.89-26.7Q195.09-26.7 197.24-25.83 199.39-24.95 200.66-23.38 201.94-21.8 202.46-19.58 202.99-17.35 202.99-14.7L202.99-14.7 202.99 0 196.94 0 196.94-13.75Q196.94-15.85 196.66-17.32 196.39-18.8 195.76-19.73 195.14-20.65 194.06-21.08 192.99-21.5 191.44-21.5L191.44-21.5Q190.29-21.5 189.04-21.35 187.79-21.2 187.19-21.1L187.19-21.1 187.19 0 181.14 0ZM215.13-13.75L215.13-13.75Q215.13-9.9 216.81-8.13 218.48-6.35 221.13-6.35L221.13-6.35Q222.58-6.35 223.86-6.75 225.13-7.15 225.93-7.7L225.93-7.7 225.93-21.25Q225.28-21.4 224.33-21.53 223.38-21.65 221.93-21.65L221.93-21.65Q218.63-21.65 216.88-19.48 215.13-17.3 215.13-13.75ZM231.98-25.3L231.98-2.65Q231.98 3.6 228.81 6.5 225.63 9.4 219.08 9.4L219.08 9.4Q216.68 9.4 214.41 9 212.13 8.6 210.28 7.95L210.28 7.95 211.38 2.8Q212.93 3.45 214.91 3.85 216.88 4.25 219.18 4.25L219.18 4.25Q222.83 4.25 224.38 2.75 225.93 1.25 225.93-1.7L225.93-1.7 225.93-2.7Q225.03-2.25 223.56-1.8 222.08-1.35 220.18-1.35L220.18-1.35Q217.68-1.35 215.61-2.15 213.53-2.95 212.06-4.5 210.58-6.05 209.76-8.38 208.93-10.7 208.93-13.75L208.93-13.75Q208.93-16.6 209.81-19 210.68-21.4 212.36-23.1 214.03-24.8 216.43-25.75 218.83-26.7 221.88-26.7L221.88-26.7Q224.83-26.7 227.48-26.25 230.13-25.8 231.98-25.3L231.98-25.3ZM245.78-26.15L245.78 0 239.73 0 239.73-26.15 245.78-26.15ZM246.43-33.8L246.43-33.8Q246.43-32.1 245.33-31.1 244.23-30.1 242.73-30.1L242.73-30.1Q241.18-30.1 240.08-31.1 238.98-32.1 238.98-33.8L238.98-33.8Q238.98-35.55 240.08-36.55 241.18-37.55 242.73-37.55L242.73-37.55Q244.23-37.55 245.33-36.55 246.43-35.55 246.43-33.8ZM253.48 0L253.48-25.3Q255.23-25.8 258.03-26.25 260.83-26.7 264.23-26.7L264.23-26.7Q267.43-26.7 269.58-25.83 271.73-24.95 273-23.38 274.28-21.8 274.8-19.58 275.33-17.35 275.33-14.7L275.33-14.7 275.33 0 269.28 0 269.28-13.75Q269.28-15.85 269-17.32 268.73-18.8 268.1-19.73 267.48-20.65 266.4-21.08 265.33-21.5 263.78-21.5L263.78-21.5Q262.63-21.5 261.38-21.35 260.13-21.2 259.53-21.1L259.53-21.1 259.53 0 253.48 0ZM281.28-12.95L281.28-12.95Q281.28-16.4 282.3-19 283.33-21.6 285.03-23.33 286.73-25.05 288.93-25.93 291.13-26.8 293.43-26.8L293.43-26.8Q298.83-26.8 301.85-23.45 304.88-20.1 304.88-13.45L304.88-13.45Q304.88-12.95 304.85-12.33 304.83-11.7 304.78-11.2L304.78-11.2 287.53-11.2Q287.78-8.05 289.75-6.33 291.73-4.6 295.48-4.6L295.48-4.6Q297.68-4.6 299.5-5 301.33-5.4 302.38-5.85L302.38-5.85 303.18-0.9Q302.68-0.65 301.8-0.38 300.93-0.1 299.8 0.13 298.68 0.35 297.38 0.5 296.08 0.65 294.73 0.65L294.73 0.65Q291.28 0.65 288.73-0.38 286.18-1.4 284.53-3.23 282.88-5.05 282.08-7.53 281.28-10 281.28-12.95ZM287.58-15.65L298.83-15.65Q298.83-16.9 298.48-18.03 298.13-19.15 297.45-19.98 296.78-20.8 295.8-21.28 294.83-21.75 293.48-21.75L293.48-21.75Q292.08-21.75 291.03-21.23 289.98-20.7 289.25-19.85 288.53-19 288.13-17.9 287.73-16.8 287.58-15.65L287.58-15.65Z" opacity="1" transform="matrix(1,0,0,1,0,0)" fill="#233565" class="wordmark-text-0" data-fill-palette-color="primary" id="text-0"></path></svg></g></svg></g></svg></g></svg></g><g transform="matrix(1,0,0,1,156.9043010363368,0)"><svg viewBox="0 0 81.71139792732642 81.71139792732644" height="81.71139792732644" width="81.71139792732642"><g><svg xmlns="http://www.w3.org/2000/svg" xmlns:xlink="http://www.w3.org/1999/xlink" version="1.1" x="0" y="0" viewBox="14.128 14.128 71.744 71.74400000000003" enable-background="new 0 0 100 100" xml:space="preserve" height="81.71139792732644" width="81.71139792732642" class="icon-icon-0" data-fill-palette-color="accent" id="icon-0"><path d="M49.997 62.372c0.001 0 0.002 0 0.002 0 3.307 0 6.413-1.287 8.749-3.624 2.337-2.336 3.623-5.442 3.623-8.748s-1.286-6.412-3.623-8.748c-2.336-2.337-5.442-3.624-8.748-3.624h-0.001c-3.305 0-6.411 1.287-8.747 3.624-2.337 2.336-3.624 5.442-3.625 8.748s1.286 6.413 3.623 8.75C43.586 61.086 46.691 62.372 49.997 62.372zM44.08 44.08c1.581-1.581 3.684-2.452 5.919-2.452 2.237 0 4.34 0.871 5.921 2.452s2.451 3.683 2.451 5.92-0.87 4.339-2.451 5.92-3.684 2.452-5.921 2.452c-0.001 0-0.001 0-0.002 0-2.237 0-4.339-0.87-5.919-2.45-1.581-1.581-2.452-3.684-2.451-5.921S42.499 45.661 44.08 44.08z" fill="#8bd8bc" data-fill-palette-color="accent"></path><path d="M61.376 35.796c-0.781 0.781-0.781 2.047 0 2.828 6.272 6.272 6.272 16.479 0 22.751-6.274 6.273-16.481 6.274-22.754 0.003-0.781-0.781-2.047-0.781-2.828 0s-0.781 2.047 0 2.828c3.915 3.915 9.059 5.873 14.202 5.873 5.145 0 10.291-1.959 14.208-5.876 7.832-7.832 7.832-20.575 0-28.407C63.423 35.015 62.157 35.015 61.376 35.796z" fill="#8bd8bc" data-fill-palette-color="accent"></path><path d="M83.872 41.713l-7.568-0.002c-0.484-1.543-1.101-3.032-1.842-4.454l5.349-5.349c0.781-0.781 0.781-2.047 0-2.828l-8.891-8.891c-0.781-0.781-2.047-0.781-2.828 0l-5.349 5.349c-1.423-0.742-2.914-1.358-4.456-1.842l-0.001-7.568c0-0.53-0.211-1.039-0.586-1.414s-0.884-0.586-1.414-0.586L43.711 14.13c-1.104 0-2 0.896-2 2v7.566c-1.541 0.483-3.031 1.099-4.454 1.841l-5.349-5.348c-0.781-0.781-2.047-0.781-2.828 0l-8.891 8.891c-0.781 0.781-0.781 2.047 0 2.828l5.348 5.349c-0.744 1.426-1.36 2.916-1.843 4.454l-7.566 0.002c-1.104 0-2 0.896-2 2v12.574c0 1.104 0.896 2 2 2l7.568 0.002c0.483 1.541 1.099 3.031 1.84 4.455l-5.347 5.348c-0.781 0.781-0.781 2.047 0 2.828l8.891 8.891c0.781 0.781 2.047 0.781 2.828 0l5.348-5.347c1.427 0.743 2.917 1.359 4.457 1.842v7.566c0 1.104 0.896 2 2 2h12.573c1.104 0 2-0.896 2-1.999l0.003-7.567c1.536-0.481 3.026-1.098 4.454-1.844l5.349 5.349c0.781 0.781 2.047 0.781 2.828 0l8.891-8.891c0.781-0.781 0.781-2.047 0-2.828l-5.349-5.349c0.741-1.422 1.357-2.911 1.842-4.454l7.568-0.002c1.104 0 2-0.896 2-2V43.713C85.872 42.608 84.977 41.713 83.872 41.713zM81.872 54.287l-7.08 0.002c-0.916 0-1.715 0.622-1.938 1.51-0.562 2.221-1.434 4.328-2.591 6.262-0.471 0.787-0.347 1.793 0.302 2.441l5.004 5.004-6.062 6.062-5.004-5.004c-0.647-0.647-1.653-0.773-2.44-0.303-1.949 1.166-4.056 2.037-6.259 2.591-0.89 0.223-1.514 1.021-1.514 1.938l-0.002 7.081h-8.574v-7.078c0-0.916-0.622-1.715-1.511-1.939-2.213-0.559-4.321-1.43-6.268-2.591-0.788-0.469-1.791-0.345-2.438 0.304l-5.002 5.001-6.062-6.062 5.001-5.002c0.647-0.647 0.772-1.652 0.304-2.438-1.157-1.94-2.028-4.049-2.59-6.267-0.224-0.888-1.022-1.51-1.938-1.51l-7.08-0.002v-8.574l7.08-0.002c0.917 0 1.716-0.623 1.939-1.513 0.556-2.208 1.427-4.314 2.59-6.26 0.47-0.787 0.346-1.792-0.303-2.44l-5.003-5.004 6.062-6.062 5.003 5.003c0.647 0.647 1.651 0.774 2.44 0.303 1.939-1.159 4.047-2.031 6.263-2.59 0.889-0.225 1.511-1.023 1.511-1.939V18.13l8.575-0.002 0.001 7.081c0 0.916 0.622 1.715 1.511 1.939 2.219 0.56 4.326 1.431 6.264 2.59 0.787 0.471 1.793 0.347 2.44-0.303l5.004-5.004 6.062 6.062-5.004 5.004c-0.648 0.648-0.772 1.654-0.302 2.441 1.157 1.934 2.028 4.041 2.591 6.262 0.224 0.888 1.022 1.51 1.938 1.51l7.08 0.002V54.287z" fill="#8bd8bc" data-fill-palette-color="accent"></path></svg></g></svg></g><g></g></svg></g><defs></defs></svg><rect width="395.52" height="157.0552876317873" fill="none" stroke="none" visibility="hidden"></rect></g></svg></g></svg>